<svg width="388" height="279" viewBox="0 0 388 279" fill="none" xmlns="http://www.w3.org/2000/svg">
<rect width="122.414" height="278.43" transform="matrix(-0.00349199 -0.999994 0.999984 -0.0056423 0.701221 193.184)" fill="#D9D9D9"/>
<g filter="url(#filter0_d_851_11)">
<path d="M34.9708 177.451C31.8992 177.5 29.6002 176.769 28.0737 175.258C26.6326 173.745 25.9227 171.239 25.9439 167.74C25.9585 165.351 26.1041 162.448 26.3808 159.03C26.7429 155.612 27.2815 151.209 27.9968 145.822C28.7126 140.35 29.7356 133.465 31.0658 125.168C32.3965 116.785 34.0372 106.52 35.988 94.3726L32.068 86.628C34.8946 84.7911 37.5903 83.4256 40.1551 82.5314C42.8058 81.5506 45.1124 81.0445 47.0748 81.0131C50.1464 80.9641 52.7027 81.4779 54.7437 82.5546C56.8706 83.5445 58.7357 85.4772 60.3392 88.3526C61.9427 91.228 63.4533 95.3421 64.8711 100.695C66.2894 105.962 67.8685 112.848 69.6083 121.353C71.3482 129.857 73.4177 140.276 75.8168 152.61L77.2246 152.588C78.9741 145.478 81.2777 138.445 84.1354 131.488C87.0784 124.53 90.4031 117.949 94.1093 111.747C97.9008 105.543 101.901 100.061 106.111 95.3012C110.321 90.4559 114.609 86.6759 118.977 83.9611C123.43 81.1597 127.747 79.7256 131.928 79.6589C132.952 79.6426 133.804 79.8423 134.484 80.258C135.249 80.6724 135.842 81.3456 136.263 82.2774C136.684 83.2092 136.89 84.4431 136.88 85.9791C136.876 86.6618 136.653 88.3718 136.209 91.1092C135.852 93.76 135.32 97.0961 134.613 101.118C133.991 105.138 133.282 109.543 132.485 114.334C131.774 119.038 131.019 123.871 130.221 128.832C129.424 133.709 128.67 138.371 127.961 142.819C127.336 147.266 126.801 151.199 126.353 154.619C125.992 157.953 125.806 160.473 125.795 162.179C125.781 164.483 126.025 166.527 126.526 168.311C127.027 170.009 127.786 171.533 128.802 172.882C125.375 175.155 122.084 176.317 118.927 176.367C115.94 176.415 113.727 175.64 112.286 174.042C110.845 172.529 110.135 170.023 110.156 166.524C110.171 164.135 110.316 161.274 110.593 157.942C110.869 154.61 111.321 150.422 111.949 145.378C112.662 140.247 113.597 133.919 114.752 126.392C115.906 118.865 117.412 109.711 119.27 98.9307L118.502 98.943C114.814 102.159 111.421 105.967 108.322 110.368C105.31 114.768 102.551 119.462 100.047 124.451C97.5422 129.439 95.3366 134.381 93.43 139.275C91.6086 144.167 90.0877 148.756 88.8672 153.042C87.7326 157.241 86.9432 160.794 86.4989 163.702C84.8695 165.093 83.1139 166.188 81.2321 166.986C79.3503 167.784 77.5562 168.197 75.8498 168.224C73.7167 168.258 71.8846 167.903 70.3535 167.16C68.8224 166.416 67.4244 164.817 66.1596 162.363C64.8954 159.824 63.5957 156.09 62.2606 151.163C61.0114 146.148 59.5161 139.517 57.7747 131.269C56.1191 122.933 54.0496 112.514 51.5662 100.011L50.7983 100.024C50.0888 104.472 49.2921 109.22 48.4082 114.268C47.6102 119.23 46.8119 124.234 46.0134 129.281C45.2149 134.327 44.5032 139.117 43.8785 143.649C43.2542 148.096 42.7184 152.029 42.271 155.449C41.909 158.868 41.7225 161.473 41.7116 163.265C41.6971 165.655 41.8977 167.742 42.3134 169.527C42.8149 171.225 43.6164 172.706 44.7178 173.968C43.09 175.103 41.4639 175.94 39.8397 176.478C38.2149 177.101 36.592 177.425 34.9708 177.451Z" fill="#114360"/>
</g>
<g filter="url(#filter1_d_851_11)">
<path d="M136.833 148.387C135.314 148.411 134.56 147.316 134.574 145.103C134.58 144.063 134.828 142.779 135.317 141.252C135.806 139.724 136.524 137.953 137.469 135.938C138.441 133.896 139.641 131.637 141.069 129.161C142.524 126.658 144.207 123.952 146.118 121.042L144.888 119.381C145.664 118.889 146.386 118.531 147.054 118.307C147.749 118.083 148.483 117.964 149.256 117.952C150.349 117.934 151.027 118.19 151.291 118.719C151.934 118.176 152.629 117.898 153.375 117.886C154.175 117.873 154.773 118.13 155.17 118.657C155.567 119.184 155.762 120.034 155.754 121.208C155.747 122.434 155.725 123.835 155.689 125.408C155.653 126.955 155.63 128.596 155.619 130.329C155.635 132.062 155.678 133.781 155.748 135.486C155.817 137.192 155.941 138.803 156.118 140.32C156.322 141.836 156.607 143.178 156.973 144.346C157.366 145.513 157.854 146.398 158.437 147.002C157.553 147.709 156.524 148.072 155.351 148.091C154.418 148.106 153.646 147.865 153.036 147.368C152.426 146.898 151.937 146.092 151.571 144.952C151.231 143.784 150.988 142.215 150.84 140.244C150.719 138.246 150.667 135.754 150.685 132.767C150.701 130.154 150.714 127.967 150.725 126.207C150.736 124.421 150.758 122.967 150.792 121.847L150.312 121.855C147.837 125.547 145.804 128.806 144.214 131.631C142.65 134.455 141.489 136.887 140.73 138.925C139.971 140.937 139.588 142.583 139.58 143.863C139.572 145.303 139.751 146.447 140.119 147.294C139.664 147.648 139.169 147.909 138.635 148.078C138.1 148.273 137.5 148.376 136.833 148.387ZM138.604 139.919L139.222 137.07L153.06 136.849L152.523 139.697L138.604 139.919Z" fill="#114360"/>
</g>
<g filter="url(#filter2_d_851_11)">
<path d="M177.218 137.366C175.751 137.39 174.459 137.237 173.342 136.908C172.224 136.553 171.082 135.891 169.914 134.923L170.886 133.028C171.523 133.497 172.254 133.832 173.079 134.033C173.904 134.233 174.73 134.326 175.557 134.313C177.317 134.285 178.825 133.954 180.082 133.321C181.365 132.687 182.344 131.832 183.017 130.754C183.717 129.65 184.071 128.431 184.079 127.098C184.085 126.084 183.904 125.154 183.536 124.307C183.168 123.433 182.546 122.736 181.669 122.217C180.819 121.697 179.647 121.449 178.154 121.473C177.088 121.49 176.02 121.76 174.95 122.284C173.881 122.781 172.757 123.479 171.578 124.378L171.588 122.698C172.42 121.858 173.251 121.111 174.081 120.458C174.912 119.805 175.862 119.283 176.93 118.893C177.999 118.476 179.28 118.255 180.773 118.232C182.613 118.202 184.157 118.578 185.406 119.358C186.654 120.111 187.594 121.122 188.226 122.392C188.859 123.635 189.17 124.99 189.162 126.457C189.154 127.71 188.906 128.981 188.419 130.268C187.931 131.529 187.204 132.701 186.238 133.783C185.271 134.838 184.04 135.697 182.543 136.361C181.046 136.998 179.271 137.333 177.218 137.366ZM168.952 148.417C167.966 148.433 167.248 148.191 166.797 147.691C166.347 147.192 166.126 146.369 166.133 145.222C166.137 144.449 166.183 143.515 166.27 142.42C166.383 141.299 166.565 139.883 166.815 138.172C167.066 136.462 167.399 134.337 167.814 131.797C168.229 129.231 168.742 126.116 169.35 122.453L168.125 120.033C168.982 119.486 169.824 119.06 170.653 118.753C171.481 118.447 172.228 118.288 172.895 118.277C174.068 118.259 174.65 118.956 174.642 120.369C174.64 120.609 174.557 121.237 174.39 122.253C174.224 123.269 174.003 124.526 173.728 126.023C173.452 127.521 173.162 129.125 172.859 130.836C172.582 132.547 172.305 134.245 172.028 135.929C171.751 137.613 171.528 139.15 171.36 140.539C171.191 141.928 171.105 143.023 171.1 143.823C171.095 144.596 171.171 145.275 171.328 145.859C171.484 146.443 171.721 146.933 172.038 147.328C170.994 148.038 169.966 148.401 168.952 148.417ZM185.991 148.105C185.191 148.118 184.498 147.955 183.914 147.618C183.356 147.28 182.787 146.623 182.206 145.646C181.626 144.668 180.928 143.24 180.113 141.359L177.667 135.919L181.957 134.091C182.798 136.024 183.653 137.85 184.523 139.569C185.419 141.261 186.277 142.728 187.095 143.968C187.941 145.207 188.695 146.129 189.358 146.731C189.143 146.975 188.835 147.193 188.434 147.386C188.06 147.605 187.646 147.772 187.192 147.886C186.764 148.026 186.364 148.099 185.991 148.105Z" fill="#114360"/>
</g>
<g filter="url(#filter3_d_851_11)">
<path d="M199.872 148.578C198.672 148.597 197.875 148.103 197.481 147.096C197.087 146.089 196.895 144.759 196.905 143.106C196.92 140.733 196.947 138.399 196.988 136.106C197.029 133.785 196.989 131.586 196.868 129.508C196.748 127.43 196.452 125.542 195.983 123.843C195.513 122.117 194.776 120.676 193.77 119.519C194.787 118.783 195.869 118.405 197.016 118.387C198.376 118.365 199.399 118.829 200.087 119.778C200.801 120.726 201.284 122.319 201.537 124.554C201.79 126.79 201.905 129.828 201.882 133.668C201.868 135.934 201.857 137.748 201.849 139.108C201.84 140.468 201.834 141.508 201.83 142.228C201.826 142.921 201.809 143.441 201.78 143.788C201.778 144.108 201.777 144.388 201.775 144.628L202.295 144.62C204.632 141.73 206.528 139.046 207.983 136.57C209.464 134.067 210.597 131.889 211.382 130.036C212.193 128.157 212.735 126.695 213.008 125.651C213.308 124.58 213.458 124.044 213.458 124.044C213.46 123.724 213.369 123.352 213.185 122.929C213.001 122.505 212.816 122.095 212.632 121.697C212.448 121.3 212.33 121.009 212.278 120.823C212.814 120.308 213.243 119.968 213.564 119.803C213.911 119.637 214.272 119.552 214.645 119.546C215.498 119.532 216.189 119.828 216.719 120.432C217.275 121.01 217.55 121.819 217.544 122.859C217.539 123.659 217.414 124.501 217.169 125.385C216.924 126.242 216.545 127.194 216.032 128.242C215.546 129.263 214.925 130.447 214.17 131.792C213.443 133.11 212.58 134.643 211.583 136.393C210.155 138.922 208.889 140.982 207.786 142.572C206.684 144.163 205.69 145.392 204.805 146.26C203.919 147.127 203.076 147.727 202.274 148.06C201.499 148.392 200.698 148.565 199.872 148.578ZM217.109 148.303C215.936 148.322 215.045 148.056 214.435 147.506C213.851 146.982 213.456 146.242 213.249 145.285C213.041 144.328 212.901 143.264 212.828 142.092L211.398 120.837C211.693 120.459 212.122 120.159 212.683 119.937C213.244 119.688 213.898 119.558 214.645 119.546L215.827 122.446L216.453 144.394L216.933 144.386C219.383 140.534 221.349 137.237 222.832 134.493C224.315 131.723 225.396 129.413 226.074 127.562C226.751 125.685 227.094 124.186 227.101 123.066C227.106 122.24 227.03 121.508 226.874 120.87C226.718 120.206 226.455 119.584 226.086 119.003C226.915 118.537 227.57 118.233 228.051 118.092C228.531 117.951 229.065 117.876 229.652 117.866C230.425 117.854 231.023 118.164 231.446 118.798C231.895 119.404 232.117 120.253 232.11 121.347C232.104 122.333 231.87 123.577 231.407 125.077C230.945 126.578 230.255 128.335 229.336 130.35C228.417 132.364 227.27 134.609 225.896 137.084C224.548 139.559 222.985 142.263 221.207 145.198L221.919 146.546C221.624 146.871 221.209 147.158 220.674 147.406C220.139 147.681 219.565 147.89 218.951 148.034C218.336 148.203 217.723 148.293 217.109 148.303Z" fill="#114360"/>
</g>
<g filter="url(#filter4_d_851_11)">
<path d="M234.833 148.387C233.314 148.411 232.56 147.316 232.574 145.103C232.58 144.063 232.828 142.779 233.317 141.252C233.806 139.724 234.524 137.953 235.469 135.938C236.441 133.896 237.641 131.637 239.069 129.161C240.524 126.658 242.207 123.952 244.118 121.042L242.888 119.381C243.664 118.889 244.386 118.531 245.054 118.307C245.749 118.083 246.483 117.964 247.256 117.952C248.349 117.934 249.027 118.19 249.291 118.719C249.934 118.176 250.629 117.898 251.375 117.886C252.175 117.873 252.773 118.13 253.17 118.657C253.567 119.184 253.762 120.034 253.754 121.208C253.747 122.434 253.725 123.835 253.689 125.408C253.653 126.955 253.63 128.596 253.619 130.329C253.635 132.062 253.678 133.781 253.748 135.486C253.817 137.192 253.941 138.803 254.118 140.32C254.322 141.836 254.607 143.178 254.973 144.346C255.366 145.513 255.854 146.398 256.437 147.002C255.553 147.709 254.524 148.072 253.351 148.091C252.418 148.106 251.646 147.865 251.036 147.368C250.426 146.898 249.937 146.092 249.571 144.952C249.231 143.784 248.988 142.215 248.84 140.244C248.719 138.246 248.667 135.754 248.685 132.767C248.701 130.154 248.714 127.967 248.725 126.207C248.736 124.421 248.758 122.967 248.792 121.847L248.312 121.855C245.837 125.547 243.804 128.806 242.214 131.631C240.65 134.455 239.489 136.887 238.73 138.925C237.971 140.937 237.588 142.583 237.58 143.863C237.572 145.303 237.751 146.447 238.119 147.294C237.664 147.648 237.169 147.909 236.635 148.078C236.1 148.273 235.5 148.376 234.833 148.387ZM236.604 139.919L237.222 137.07L251.06 136.849L250.523 139.697L236.604 139.919Z" fill="#114360"/>
</g>
<defs>
<filter id="filter0_d_851_11" x="21.8824" y="79.5792" width="119.037" height="106.273" filterUnits="userSpaceOnUse" color-interpolation-filters="sRGB">
<feFlood flood-opacity="0" result="BackgroundImageFix"/>
<feColorMatrix in="SourceAlpha" type="matrix" values="0 0 0 0 0 0 0 0 0 0 0 0 0 0 0 0 0 0 127 0" result="hardAlpha"/>
<feOffset dy="4"/>
<feGaussianBlur stdDeviation="2"/>
<feComposite in2="hardAlpha" operator="out"/>
<feColorMatrix type="matrix" values="0 0 0 0 0 0 0 0 0 0 0 0 0 0 0 0 0 0 0.25 0"/>
<feBlend mode="normal" in2="BackgroundImageFix" result="effect1_dropShadow_851_11"/>
<feBlend mode="normal" in="SourceGraphic" in2="effect1_dropShadow_851_11" result="shape"/>
</filter>
<filter id="filter1_d_851_11" x="130.554" y="117.802" width="32.0609" height="38.6205" filterUnits="userSpaceOnUse" color-interpolation-filters="sRGB">
<feFlood flood-opacity="0" result="BackgroundImageFix"/>
<feColorMatrix in="SourceAlpha" type="matrix" values="0 0 0 0 0 0 0 0 0 0 0 0 0 0 0 0 0 0 127 0" result="hardAlpha"/>
<feOffset dy="4"/>
<feGaussianBlur stdDeviation="2"/>
<feComposite in2="hardAlpha" operator="out"/>
<feColorMatrix type="matrix" values="0 0 0 0 0 0 0 0 0 0 0 0 0 0 0 0 0 0 0.25 0"/>
<feBlend mode="normal" in2="BackgroundImageFix" result="effect1_dropShadow_851_11"/>
<feBlend mode="normal" in="SourceGraphic" in2="effect1_dropShadow_851_11" result="shape"/>
</filter>
<filter id="filter2_d_851_11" x="162.113" y="118.012" width="31.42" height="38.4503" filterUnits="userSpaceOnUse" color-interpolation-filters="sRGB">
<feFlood flood-opacity="0" result="BackgroundImageFix"/>
<feColorMatrix in="SourceAlpha" type="matrix" values="0 0 0 0 0 0 0 0 0 0 0 0 0 0 0 0 0 0 127 0" result="hardAlpha"/>
<feOffset dy="4"/>
<feGaussianBlur stdDeviation="2"/>
<feComposite in2="hardAlpha" operator="out"/>
<feColorMatrix type="matrix" values="0 0 0 0 0 0 0 0 0 0 0 0 0 0 0 0 0 0 0.25 0"/>
<feBlend mode="normal" in2="BackgroundImageFix" result="effect1_dropShadow_851_11"/>
<feBlend mode="normal" in="SourceGraphic" in2="effect1_dropShadow_851_11" result="shape"/>
</filter>
<filter id="filter3_d_851_11" x="189.592" y="117.827" width="46.539" height="38.8516" filterUnits="userSpaceOnUse" color-interpolation-filters="sRGB">
<feFlood flood-opacity="0" result="BackgroundImageFix"/>
<feColorMatrix in="SourceAlpha" type="matrix" values="0 0 0 0 0 0 0 0 0 0 0 0 0 0 0 0 0 0 127 0" result="hardAlpha"/>
<feOffset dy="4"/>
<feGaussianBlur stdDeviation="2"/>
<feComposite in2="hardAlpha" operator="out"/>
<feColorMatrix type="matrix" values="0 0 0 0 0 0 0 0 0 0 0 0 0 0 0 0 0 0 0.25 0"/>
<feBlend mode="normal" in2="BackgroundImageFix" result="effect1_dropShadow_851_11"/>
<feBlend mode="normal" in="SourceGraphic" in2="effect1_dropShadow_851_11" result="shape"/>
</filter>
<filter id="filter4_d_851_11" x="228.554" y="117.802" width="32.0609" height="38.6205" filterUnits="userSpaceOnUse" color-interpolation-filters="sRGB">
<feFlood flood-opacity="0" result="BackgroundImageFix"/>
<feColorMatrix in="SourceAlpha" type="matrix" values="0 0 0 0 0 0 0 0 0 0 0 0 0 0 0 0 0 0 127 0" result="hardAlpha"/>
<feOffset dy="4"/>
<feGaussianBlur stdDeviation="2"/>
<feComposite in2="hardAlpha" operator="out"/>
<feColorMatrix type="matrix" values="0 0 0 0 0 0 0 0 0 0 0 0 0 0 0 0 0 0 0.25 0"/>
<feBlend mode="normal" in2="BackgroundImageFix" result="effect1_dropShadow_851_11"/>
<feBlend mode="normal" in="SourceGraphic" in2="effect1_dropShadow_851_11" result="shape"/>
</filter>
</defs>
</svg>
